<?xml version="1.0" encoding="UTF-8"?>
<svg width="194px" height="194px" viewBox="0 0 194 194" version="1.1" xmlns="http://www.w3.org/2000/svg" xmlns:xlink="http://www.w3.org/1999/xlink">
    <title>future</title>
    <g id="Programas" stroke="none" stroke-width="1" fill="none" fill-rule="evenodd">
        <g id="future" transform="translate(2.000000, 2.000000)">
            <path d="M2.61310127,71.1076203 C61.4149747,88.9262532 112.652684,124.115696 150.338101,170.695759 M41.9241013,172.139759 C102.341215,145.754532 141.721481,82.8222025 134.991633,13.7629747 C134.842519,12.2323924 134.671759,10.7092658 134.479595,9.19359494 M15.4746582,145.172987 C19.2568608,79.5542025 63.0165063,24.6384304 122.796278,4.35388608 M151.347987,170.791481 C126.208342,118.021506 109.404165,60.5248608 102.636076,0 M190,95.1159241 C190,147.518886 147.467177,190 95,190 C42.5330633,190 0,147.518886 0,95.1159241 C0,42.7127215 42.5330633,0.231607595 95,0.231607595 C147.467177,0.231607595 190,42.7127215 190,95.1159241 Z" id="Shape" stroke="#47BCFF" stroke-width="3.6"></path>
            <path d="M42.2776456,79.9358861 C42.2776456,84.6522152 38.4497468,88.4753038 33.7276456,88.4753038 C29.0057848,88.4753038 25.1776456,84.6522152 25.1776456,79.9358861 C25.1776456,75.219557 29.0057848,71.3962278 33.7276456,71.3962278 C38.4497468,71.3962278 42.2776456,75.219557 42.2776456,79.9358861 Z" id="Path" fill="#47BCFF"></path>
            <path d="M131.568025,95.1231392 C131.568025,99.8394684 127.739886,103.662797 123.018025,103.662797 C118.295924,103.662797 114.468025,99.8394684 114.468025,95.1231392 C114.468025,90.4070506 118.295924,86.5837215 123.018025,86.5837215 C127.739886,86.5837215 131.568025,90.4070506 131.568025,95.1231392 Z" id="Path" fill="#47BCFF"></path>
            <path d="M86.4466329,29.1784684 C86.4466329,33.894557 82.6187342,37.7178861 77.8966329,37.7178861 C73.1745316,37.7178861 69.3466329,33.894557 69.3466329,29.1784684 C69.3466329,24.4621392 73.1745316,20.6388101 77.8966329,20.6388101 C82.6187342,20.6388101 86.4466329,24.4621392 86.4466329,29.1784684 Z" id="Path" fill="#47BCFF"></path>
            <path d="M112.112747,124.063025 C112.112747,128.779354 108.284848,132.602684 103.562747,132.602684 C98.8406456,132.602684 95.0127468,128.779354 95.0127468,124.063025 C95.0127468,119.346696 98.8406456,115.523608 103.562747,115.523608 C108.284848,115.523608 112.112747,119.346696 112.112747,124.063025 Z" id="Path" fill="#47BCFF"></path>
        </g>
    </g>
</svg>