<?xml version="1.0" encoding="UTF-8"?>
<svg width="158px" height="158px" viewBox="0 0 158 158" version="1.1" xmlns="http://www.w3.org/2000/svg" xmlns:xlink="http://www.w3.org/1999/xlink">
    <title>people</title>
    <g id="Programas" stroke="none" stroke-width="1" fill="none" fill-rule="evenodd">
        <g id="Group-6" fill="#47BCFF">
            <path d="M40.6951776,69.1709393 L40.6951776,67.8105459 C40.7298886,67.2458972 40.7441076,66.6565713 40.7574902,66.0864852 C40.7892738,64.7635342 40.8223121,63.3954113 41.1020917,62.047783 C42.3659093,55.9583603 48.0162864,51.8648663 54.2517332,52.5315701 C60.3592091,53.1819617 65.0167659,58.3093903 65.0861881,64.4573691 C65.0912065,64.904069 65.098316,65.3520236 65.1058437,65.8003965 C65.1485007,68.3940163 65.1928305,71.0758885 64.7771341,73.6908394 C63.8909562,79.260367 58.7775552,83.502761 53.1560343,83.502761 C52.8703998,83.502761 52.5835107,83.491468 52.2962034,83.4697186 C45.9787883,82.9811929 41.1635679,78.162439 40.8457316,72.0115323 C40.812554,71.3688088 40.7623693,70.4219444 40.6951776,69.1709393 Z M26.7375626,34.0633746 C20.5978849,33.7484261 15.6321105,29.0108143 15.1871397,23.0426865 C14.9721819,20.1529399 14.964236,17.2067284 15.1649748,14.2860307 C15.6082728,7.8314685 21.033237,2.88723708 27.5409358,3.04324743 C33.8633694,3.19005609 39.0683574,8.31413858 39.3903758,14.7088898 C39.4351238,15.6001983 39.4234141,16.4910884 39.4117043,17.3527006 L39.4104497,17.4238045 L39.584005,17.4321696 L39.5141647,18.5945095 C39.4815446,19.137827 39.46398,19.6840723 39.4464154,20.2298994 C39.4066858,21.4641797 39.3648653,22.7402858 39.152835,24.0063537 C38.1897073,29.7569871 33.0562324,34.0784319 27.3222142,34.0784319 C27.1277485,34.0784319 26.9328647,34.0734128 26.7375626,34.0633746 Z M92.554356,64.4255815 C92.6672716,57.9237561 98.0085947,52.5667038 104.459836,52.4843069 C104.514202,52.4838886 104.569406,52.4834704 104.623772,52.4834704 C111.202984,52.4834704 116.540543,57.5602897 116.809031,64.1102147 C116.844997,64.994831 116.891836,65.8835119 116.882636,66.7405231 C116.882217,66.7752386 116.914838,69.3367705 116.882636,69.9842343 C116.809031,71.4841086 116.732918,73.0350104 116.363224,74.5465959 C115.085606,79.776916 110.197618,83.4960689 104.892679,83.4960689 C104.443107,83.4960689 103.990191,83.4697186 103.536019,83.4149268 C97.3089365,82.6624801 92.6927821,77.7211765 92.5602109,71.666051 C92.5104444,69.4041101 92.5083534,67.0359316 92.554356,64.4255815 Z M78.9831632,34.0780136 C72.4942837,34.0784319 67.06221,28.8297084 66.8652351,22.363435 C66.8465552,21.754451 66.7973463,20.9027474 66.7176085,19.8083242 L66.7176085,18.3226416 C66.7611019,17.742099 66.7845214,17.136461 66.8075227,16.5508994 C66.8602166,15.1978338 66.9145833,13.7983415 67.2131822,12.4231082 C68.4933098,6.52232001 74.1896895,2.42464339 80.1863409,3.09009236 C86.3787126,3.77896378 90.9739567,8.7482907 91.112801,14.9054712 C91.1726044,17.5409168 91.1709316,19.9643054 91.1082008,22.3136623 C90.9359,28.7837 85.5105176,34.0612833 79.0141104,34.0780136 L78.9831632,34.0780136 Z M136.53914,123.258213 C134.716181,123.267833 132.830073,123.277453 130.969058,123.236045 C124.256857,123.08589 119.191968,118.512654 118.652482,112.114557 C118.406995,109.203897 118.406577,106.245556 118.650391,103.321513 C119.178585,96.9865722 124.380227,92.2309753 130.765392,92.2309753 C130.791321,92.2309753 130.816831,92.2313936 130.84276,92.2313936 C137.208269,92.2698733 142.359726,97.1229245 142.826444,103.520185 C142.93685,105.041391 142.930159,106.573471 142.923049,108.054942 C142.918867,108.898151 142.914685,109.770219 142.933086,110.619283 C142.952324,111.500554 143.224576,112.555401 144.412698,112.574641 C144.819194,112.594717 145.169232,112.455437 145.432702,112.199463 C145.764757,111.87615 145.950859,111.350399 145.957132,110.719247 L145.964659,109.968055 C145.989752,107.670981 146.015262,105.295273 145.831252,103.002381 C145.254964,95.8066656 139.449433,89.8924931 132.326554,89.2458658 C124.630314,88.5482109 117.816071,93.2724385 116.123592,100.480702 C115.026221,105.157248 115.020784,109.940032 116.108119,114.695629 C116.476558,116.307596 117.262366,117.84846 118.093759,119.479667 C118.473072,120.223749 118.98349,121.181395 119.606828,121.81879 L121.008292,123.285818 L118.343846,123.37909 C113.070691,124.201804 108.844722,127.003716 105.782202,131.707867 L104.893933,133.071807 L103.74805,131.576116 C103.64768,131.44771 103.574076,131.351929 103.505908,131.252802 C99.7056733,125.717572 94.5395785,123.095092 87.6885328,123.240228 C85.1521153,123.294183 82.424996,123.293765 79.3490931,123.240646 C71.9129778,123.111822 66.8886546,118.029148 66.8464158,110.593351 L66.8418156,109.866 C66.830524,107.992621 66.818396,106.056085 66.8597984,104.144227 C67.0024065,97.4780258 72.314037,92.2456144 78.9522159,92.2330666 L78.9764719,92.2330666 C85.6255242,92.2330666 90.9547193,97.4295078 91.1144738,104.073959 C91.1437482,105.268505 91.1387298,106.474762 91.1345477,107.642121 C91.1307839,108.632138 91.12702,109.656035 91.1437482,110.656927 C91.1596401,111.580441 91.568227,112.57004 92.6693626,112.576314 L92.6810724,112.576314 C94.0013477,112.576314 94.1590113,111.257964 94.1652844,110.689551 C94.1924677,108.310498 94.2100324,106.165251 94.1519018,104.002019 C94.0197488,99.0757725 91.9697045,95.1721677 87.8838349,92.0678546 C87.6048917,91.8562159 87.3221846,91.6487598 87.009785,91.4191359 L85.1788805,90.0673251 L86.5623049,89.1626324 C89.2103833,87.4314613 91.6560502,86.6125115 94.2593806,86.585743 C95.8309976,86.5694309 97.4026146,86.5715222 98.972977,86.5723587 C100.762479,86.5748683 102.612621,86.576123 104.427634,86.5497728 C112.341758,86.4339152 118.441706,81.3529133 119.606828,73.9066607 C120.055144,71.0395 119.956029,67.9799405 119.86026,65.0215996 L119.831404,64.1256903 C119.62021,57.2189909 114.965999,51.4955442 108.250452,49.8831585 C106.649561,49.4987791 106.101293,48.6062159 105.77091,47.3844834 C103.931224,40.5852764 99.6722169,36.3780161 92.7513309,34.5226222 C92.3950197,34.4268411 92.0140343,34.3494633 91.5728273,34.259956 C91.3327772,34.2110198 91.0759989,34.1587375 90.7949647,34.09809 L88.8992383,33.6894517 L90.1668197,32.2222015 C92.5041714,29.513979 93.6935483,27.0270151 93.9089243,24.3953339 C94.1698846,21.2094604 94.1648662,17.9144215 94.138101,14.8126179 C94.0820614,8.41493884 89.5600033,2.45601277 83.3856145,0.643699531 C82.8248006,0.478905759 82.2593865,0.328751028 81.6943907,0.178178038 C81.4723234,0.119203617 81.2494198,0.0602291959 81.0273526,0 L76.9498471,0 C74.326861,0.707693052 71.8067535,1.49401866 69.7466723,3.15617717 C65.8937433,6.26383637 63.9582873,10.0821164 63.8290618,14.8293482 C63.7976963,15.9895967 63.7976963,17.1778686 63.7972781,18.3268241 C63.7972781,19.2432281 63.7968599,20.159632 63.7822227,21.076036 C63.7111278,25.4497631 64.9778728,29.0338185 67.6552256,32.0327305 L68.8065459,33.3226391 L67.172198,33.8860331 C66.6134752,34.0788502 66.0635348,34.2662299 65.5198674,34.4515183 C64.1322609,34.9249867 62.821186,35.3721048 61.5109476,35.8526836 C61.0003185,36.0400634 60.4934532,36.360031 60.1095403,36.6180963 C59.3279139,37.1417557 59.0870274,37.9251535 59.480559,38.6633794 C59.6817159,39.0410667 60.0397,39.3317562 60.43825,39.4409216 C60.6657539,39.5032421 61.0111918,39.5325202 61.3649938,39.3179537 C64.8687211,37.192365 68.6656106,37.0601954 72.2437785,37.1053673 C74.9349321,37.140501 77.6745976,37.1329723 80.3256034,37.1258619 C83.3191198,37.1174967 86.4138419,37.1091316 89.4625614,37.1614139 C95.7711942,37.2693245 101.615619,42.0997897 102.766939,48.1590977 L102.944676,49.0913955 L102.062681,49.4427325 C101.567943,49.6393139 101.064424,49.8204197 100.560904,50.0011073 C99.5078621,50.3792128 98.5137871,50.7364054 97.6179905,51.2353876 C92.342744,54.1723974 89.6172975,58.7289034 89.5186009,64.7790097 C89.5048001,65.6259828 89.5056366,66.4733741 89.506473,67.3211837 C89.5073094,68.2827596 89.508564,69.2773778 89.4876537,70.2619579 C89.3914664,74.7561433 90.6895769,78.4464364 93.4547529,81.5432209 L94.6391114,82.8695179 L92.9441237,83.4061433 C92.7780961,83.4588439 92.6292149,83.5102897 92.4916252,83.5579711 C92.1804801,83.6663 91.8864815,83.768355 91.5552626,83.8306755 C88.4638862,84.4103815 85.6589806,85.8161477 82.979955,88.1286979 C82.3112441,88.7050578 81.1712153,89.2513032 80.1261193,89.1789445 C75.7295229,88.863996 71.401094,90.4968764 68.2465685,93.6580727 C65.1229902,96.7878996 63.5087162,101.005198 63.8190248,105.228352 C63.9173032,106.567615 63.9152121,107.915662 63.9131211,109.218955 C63.9106119,110.694152 63.9081026,112.088207 64.0381646,113.483516 C64.2907608,116.201777 65.5286497,118.783267 67.8237625,121.376469 L69.1933862,122.924861 L67.155888,123.272852 C61.4996561,124.23861 57.1758274,126.993678 54.3052636,131.460677 L53.5290738,132.66777 L52.5199435,131.647638 C52.0022048,131.123979 51.4995216,130.589863 50.9993476,130.058256 C49.912431,128.902609 48.885736,127.810536 47.739016,126.866946 C45.002278,124.613788 41.7996588,123.418406 38.2193999,123.31426 C36.0091828,123.250266 33.7504539,123.250684 31.5678384,123.255285 C30.3504416,123.25654 29.1326266,123.257795 27.9160663,123.248175 C20.2963586,123.187945 15.1311001,118.042114 15.0620962,110.443197 L15.0503864,109.386676 C15.0273851,107.449304 15.0031292,105.445428 15.1536832,103.462884 C15.6530208,96.8995745 21.0600022,92.0720372 27.689817,92.240177 C34.025215,92.3978604 39.1666358,97.5850999 39.3941397,104.049282 C39.4422333,105.404857 39.4338692,106.77298 39.4255051,108.096349 C39.4209048,108.947923 39.4154681,109.799079 39.4250869,110.649816 C39.4309418,111.224503 39.5881871,112.562093 40.9084625,112.576314 C41.3229043,112.574223 41.6691786,112.443726 41.9334846,112.180223 C42.2642853,111.850218 42.4428591,111.334087 42.4378407,110.727194 C42.432404,110.087677 42.4319858,109.447324 42.4319858,108.806552 C42.4319858,106.538337 42.4315676,104.193163 42.170189,101.951298 C41.7214543,98.1016489 39.7379047,94.8103743 36.2734888,92.1682366 C35.9782356,91.9436319 35.6800549,91.7223732 35.3542727,91.4806199 L33.581917,90.1593419 L34.8666448,89.2437745 C37.3436772,87.479561 40.0281395,86.6020551 43.0735133,86.5602292 C44.2444893,86.5443354 45.4326116,86.5476815 46.5826773,86.5518641 C49.3616541,86.5602292 52.238491,86.5694309 55.0095219,86.29589 C61.877714,85.6178933 67.6083866,79.6372178 68.0558667,72.6803274 C68.2570236,69.5525918 68.3954497,65.8924133 67.8961121,62.4601857 C66.9568221,56.0010227 63.0796372,51.7339515 56.3724543,49.7760843 C55.5552804,49.5380954 54.5574416,48.7333664 54.3027543,47.7993956 C52.2255267,40.1795658 47.476801,35.7564842 39.7847438,34.2771046 C39.5300565,34.2281684 39.3255539,34.1629201 39.1946555,34.09809 L38.4542506,33.9533727 L37.1146287,33.6894517 C37.7037523,33.3226391 38.4080106,32.2477153 38.6848628,31.928166 C41.4165824,28.7586045 42.649871,24.8880422 42.4541507,20.0960568 C42.4194396,19.2478289 42.4169304,18.3887264 42.414003,17.5576471 C42.4077299,15.5646463 42.401875,13.6824839 41.9953791,11.9044679 C40.5939718,5.77154635 36.6427644,1.8658503 30.2521633,0.296963396 C29.9619285,0.225441226 29.6917676,0.1284053 29.4538086,0.0426623471 C29.4140791,0.0284415647 29.3743495,0.0142207824 29.3350382,0 L25.2738427,0 C21.4510245,0.869559016 18.8113102,2.18205358 16.7265548,4.24741309 C13.4390399,7.50439051 11.9134255,11.3226706 12.0631431,15.9210024 C12.0961814,16.924404 12.0635614,17.928224 12.0321959,18.8985832 C12.0054308,19.7275712 11.9778292,20.5841642 11.9933028,21.4110609 C12.0748529,25.8128113 13.3754726,29.3006673 15.9700207,32.0741381 L17.2045639,33.3937431 L15.4861567,33.9533727 C14.8839405,34.1499541 14.2917613,34.3235313 13.71171,34.4933441 C12.5457525,34.8350612 11.4441987,35.1579566 10.4488692,35.6192955 C4.81814776,38.2300638 1.38802469,42.6518906 0.255523677,48.7622262 C0.19990232,49.0608626 0.0907506349,49.3034525 0,49.4991973 L0,67.7448794 C0.679584247,68.9030366 1.3298941,68.9134931 1.9329467,68.7399159 C2.66689769,68.5303685 3.06168386,68.115038 3.04788307,66.5218921 C3.00480789,61.4885717 3.01986329,56.44354 3.03700973,52.1095474 C3.05373795,47.8989411 4.55300536,44.0840071 7.25837797,41.3682559 C9.96584161,38.6499952 13.7702588,37.1451018 17.9702985,37.1300445 L19.1914591,37.1254437 C25.2579509,37.1036942 31.5310363,37.0811083 37.7037523,37.1563948 C43.552777,37.2279169 48.9530671,41.2130821 50.837502,46.847858 C50.945399,47.1724264 51.0114755,47.4936488 51.0746246,47.8044147 C51.1026444,47.9411852 51.1319188,48.0842295 51.1666299,48.2348025 L51.4238264,49.356153 L50.3021987,49.6133819 C47.1363816,50.3386418 44.6413665,51.5959262 42.6745451,53.4575939 C39.258641,56.6894759 37.6581678,60.5186306 37.7819567,65.1642256 C37.8099765,66.2303661 37.7823749,67.3002708 37.7556098,68.3350418 C37.7346995,69.1519003 37.7125346,69.9963638 37.7192259,70.8165684 C37.7556098,75.1585078 39.0859221,78.6940453 41.7850216,81.6247812 L43.1441901,83.1008148 L41.1844782,83.5278565 C40.903444,83.5893405 40.6475021,83.6437141 40.4091249,83.6939051 C39.9612266,83.7884314 39.5760591,83.8699918 39.1946555,83.9636817 C36.332874,84.6688652 33.7583998,86.031969 31.323188,88.1312074 C30.5561988,88.7920555 29.3643126,89.2161695 28.3610371,89.1810358 C23.7147719,89.0350636 19.4963311,90.5930758 16.505324,93.5819496 C13.508462,96.5766791 11.9393543,100.799833 12.0873991,105.47387 C12.1129096,106.272325 12.0761075,107.06367 12.0409782,107.829082 C12.0229954,108.212625 12.0054308,108.596586 11.995812,108.980129 C11.8624044,114.273188 12.6160111,116.615016 16.0268967,121.508638 L16.9954611,122.897256 L15.3473124,123.285818 C15.1039167,123.343119 14.8663759,123.39582 14.6321807,123.447266 C14.169227,123.549739 13.7317839,123.645938 13.3181784,123.767233 C5.98285061,125.917081 1.70711563,130.571041 0.247577769,137.995544 C0.190701795,138.284979 0.0853139609,138.524641 0,138.717876 L0,156.926333 C0.752352038,158.024261 1.27176351,158.121297 1.93420132,157.909659 C2.6677341,157.674179 3.06210207,157.242955 3.04788307,155.645208 C3.00731712,151.022199 3.02153612,146.325158 3.03450049,141.782037 L3.03575511,141.386783 C3.06168386,132.558186 9.22436292,126.357089 18.0217378,126.306479 C24.1936174,126.270509 30.4641935,126.270509 36.6603291,126.306061 C45.4572858,126.35667 51.6195466,132.556513 51.6458936,141.383018 C51.6542577,144.059035 51.6525849,146.735052 51.650912,149.411068 C51.6492392,151.536239 51.6479846,153.661409 51.6517485,155.786161 C51.6534213,156.789563 51.9168909,157.987036 53.1618892,157.989546 L53.1660713,157.989546 C53.6256793,157.989546 53.9681898,157.840646 54.2136765,157.534481 C54.5118572,157.162649 54.6766302,156.5453 54.6778848,155.796618 C54.6820669,153.596161 54.6803941,151.394867 54.6791394,149.193992 C54.6774666,146.594098 54.676212,143.994205 54.6833215,141.393893 C54.7075774,132.562369 60.8656562,126.358343 69.6588491,126.306479 C75.6889569,126.270509 81.9607877,126.270509 88.2982767,126.306061 C97.1002519,126.354997 103.266695,132.551494 103.294296,141.375071 C103.303079,144.084967 103.301406,146.795699 103.299315,149.505595 C103.29806,151.596468 103.296806,153.687341 103.300151,155.777796 C103.301824,156.783707 103.563621,157.983272 104.802764,157.989128 L104.812801,157.989128 C105.216788,157.989128 105.528351,157.874525 105.765056,157.639464 C106.125549,157.281016 106.324197,156.630207 106.325869,155.804983 C106.330051,153.570229 106.328797,151.335893 106.327542,149.101557 C106.326288,146.535124 106.324615,143.968691 106.331724,141.402258 C106.355562,132.56697 112.509041,126.35918 121.296797,126.306479 C127.257064,126.270509 133.52764,126.270509 139.936224,126.306061 C148.741963,126.354161 154.912588,132.54773 154.941863,141.368379 C154.951482,144.131812 154.94939,146.895244 154.947299,149.659095 C154.946045,151.69685 154.944372,153.734604 154.947718,155.772359 C154.950227,157.235426 155.453747,157.980763 156.445312,157.988291 C156.850135,157.990801 157.169226,157.876198 157.411367,157.637373 C157.773534,157.278089 157.973436,156.629788 157.975109,155.811257 C157.983891,151.011743 157.981595,146.212229 157.976781,141.413133 C157.963399,130.942454 150.365438,123.305058 139.910714,123.252776 C138.786159,123.24692 137.663276,123.252357 136.53914,123.258213 Z" id="Fill-1"></path>
            <path d="M129.879005,34.0428799 C123.679524,33.4782312 118.950036,28.7063222 118.633872,22.6972052 C118.491682,19.9948383 118.390895,16.4463348 118.883541,12.9651709 C119.702388,7.17229341 125.128606,2.82115227 131.235246,3.0495213 C137.274972,3.27998163 142.241165,7.94272521 142.787342,13.8953774 C142.887711,14.9882864 142.983062,16.1076638 142.957551,17.1608382 C142.95546,17.2603837 142.981389,19.84552 142.957551,20.4465572 C142.903185,21.8389391 142.846309,23.2785842 142.532236,24.6910425 C141.32404,30.1284005 136.323555,34.0888884 130.890644,34.0888884 C130.554407,34.0888884 130.217751,34.0738311 129.879005,34.0428799 Z M145.494387,34.8237682 C144.905554,34.6476815 144.301246,34.5088197 143.602006,34.3482085 C143.250714,34.2674847 142.883111,34.1834147 142.492925,34.0884701 L140.605144,33.6292225 L141.915383,32.1945965 C144.604027,29.2525676 145.935176,25.6739495 145.984524,21.2537958 C145.992888,20.5193342 145.965287,19.7576858 145.938522,19.0211329 C145.902556,18.0035105 145.864499,16.9515908 145.914266,15.8967434 C146.250085,8.82817804 141.564926,2.38072627 134.774102,0.565903486 C134.259709,0.428296504 133.745316,0.289016489 133.231342,0.149318215 L132.67931,0 L128.642789,0 C128.602223,0.0142207824 128.562493,0.0284415647 128.521927,0.0430806054 C128.285223,0.127568783 128.016317,0.223349935 127.729428,0.295290363 C121.318334,1.89220057 117.365872,5.79538707 115.98203,11.896521 C115.568424,13.7197089 115.563824,15.6466249 115.558387,17.6868889 C115.556296,18.5234055 115.554205,19.3879455 115.521167,20.2411924 C115.337993,24.9666747 116.569609,28.7828635 119.286691,31.9085078 C119.41048,32.0502974 120.654302,33.3632977 120.654302,33.3632977 L119.56438,33.6777404 L118.778153,33.9399884 C118.208139,34.1302959 117.638542,34.3105653 117.071037,34.4904163 C116.784476,34.5812138 116.501439,34.6709192 116.221486,34.7608359 C115.240207,35.0760079 114.296823,35.3937778 113.372426,35.7702867 C112.882707,35.969796 112.543124,36.2763793 112.390061,36.6574126 C112.249962,37.00624 112.271709,37.4052585 112.452374,37.8113873 C112.878107,38.766271 113.967115,38.6976766 114.80729,38.4726537 L115.160674,38.3781273 C117.241247,37.8189159 119.393334,37.2408829 121.59435,37.1802355 C124.333597,37.104949 127.098355,37.0827813 129.842203,37.0827813 C131.880119,37.0827813 133.907162,37.0949108 135.904931,37.1070403 C137.246953,37.1154055 138.588975,37.1233524 139.930997,37.1279532 C148.738827,37.1580678 154.911543,43.3508003 154.942072,52.1869252 C154.950854,54.7976936 154.948763,57.4088801 154.94709,60.0200667 C154.945836,62.2594217 154.944163,64.4991949 154.949181,66.7385499 C154.953782,68.7721218 156.026479,68.7880156 156.430048,68.7949401 C156.866236,68.7972173 157.21962,68.6826145 157.463434,68.442116 C157.789634,68.1213119 157.970717,67.5466249 157.97239,66.8242928 C157.975318,65.6514966 157.979918,64.4791185 157.984936,63.3063222 C158.001665,59.3362144 158.018811,55.2314274 157.951062,51.2010904 C157.8256,43.7167763 152.702999,36.9819811 145.494387,34.8237682 Z" id="Fill-4"></path>
        </g>
    </g>
</svg>