<svg xmlns="http://www.w3.org/2000/svg" viewBox="0 0 25 21.47"><defs><style>.cls-1{fill:#00307a;}</style></defs><title>Recurso 44</title><g id="Capa_2" data-name="Capa 2"><g id="Capa_1-2" data-name="Capa 1"><path class="cls-1" d="M14,15a5.53,5.53,0,1,0,11,1,5.62,5.62,0,0,0-3.48-5.31l3-6.76A2.76,2.76,0,0,0,23.09.26l0,0a2.74,2.74,0,0,0-3.62,1.37v0l-5.2,11.83A2.81,2.81,0,0,0,14,15Zm-14,0a7.38,7.38,0,0,0-.07.81,5.57,5.57,0,0,0,5.43,5.7A5.62,5.62,0,0,0,7.56,10.65l3-6.76A2.76,2.76,0,0,0,9.14.26l0,0A2.75,2.75,0,0,0,5.48,1.61v0L.28,13.47A2.73,2.73,0,0,0,.07,15Z"/></g></g></svg>