<?xml version="1.0" encoding="UTF-8"?>
<svg width="177px" height="177px" viewBox="0 0 177 177" version="1.1" xmlns="http://www.w3.org/2000/svg" xmlns:xlink="http://www.w3.org/1999/xlink">
    <title>rocket</title>
    <g id="Programas" stroke="none" stroke-width="1" fill="none" fill-rule="evenodd">
        <g id="rocket" transform="translate(-0.000044, -0.000114)" fill="#47BCFF">
            <path d="M168.490233,48.0542484 L168.227981,48.8914765 L167.364674,48.7291618 C148.829264,45.236682 132.07677,28.5296139 128.397345,9.8673689 L128.226956,9.0025127 L129.068037,8.73609949 C143.27358,4.23815654 157.60852,2.48476297 172.886281,3.3737937 L173.760453,3.42460955 L173.81478,4.29686612 C174.742291,19.10204 172.950979,33.8243297 168.490233,48.0542484 L168.490233,48.0542484 Z M166.806093,53.2409188 C166.347277,54.2996646 165.906239,55.3529835 165.467672,56.398902 C164.539667,58.6130917 163.580053,60.9027652 162.515242,63.090807 C153.896993,80.8141922 141.637347,95.2715488 126.076097,106.060297 C112.315049,115.601836 98.3870686,125.394989 84.9169172,134.866471 L78.4524891,139.411283 C77.6573383,139.970258 76.9096001,140.243578 76.1174126,140.243578 C75.6097014,140.243578 75.0842104,140.131586 74.5162455,139.910068 C56.6623931,132.953723 44.086169,120.38198 37.1362544,102.543149 C36.5801427,101.115372 36.7120093,99.9850891 37.5767976,98.7635352 C46.3466692,86.3772946 56.2860546,72.3383054 65.8313217,58.6308526 L67.1356654,56.7531329 C71.8329819,49.9867308 76.6903163,42.9894373 82.6820988,36.9694856 C94.0359637,25.5615735 107.536736,16.789672 122.809558,10.8984867 C123.082675,10.7934015 123.351347,10.7203845 123.634836,10.6429273 C123.765715,10.6069122 123.905484,10.569417 124.056118,10.5250148 L125.034005,10.2373872 L125.290824,11.2226227 C127.910871,21.2604803 132.852659,29.9652851 139.978396,37.0947985 C147.24884,44.3693591 155.809306,49.210679 166.147748,51.8945454 L167.263922,52.1841464 L166.806093,53.2409188 Z M112.525937,153.019078 C109.373485,157.22594 106.040272,161.39728 102.816701,165.431466 C101.405185,167.197687 99.9941622,168.963908 98.5930176,170.737529 C98.4448528,170.925005 98.2868104,171.066599 98.1188904,171.216086 C98.0462896,171.280716 97.9662807,171.352253 97.8763941,171.436617 L96.9908627,172.277792 L78.9769923,142.838147 L117.982845,115.527339 L118.305844,116.965971 C121.640538,131.850082 119.803789,143.306343 112.525937,153.019078 L112.525937,153.019078 Z M4.60569557,80.0475142 L5.63099565,79.163417 C5.81521382,79.0045558 5.98560329,78.854575 6.14660898,78.712488 C6.47454696,78.4233803 6.78470518,78.1505535 7.11017375,77.8930207 C8.7627046,76.5885827 10.4196804,75.290065 12.0771501,73.991054 C15.3510972,71.4255935 18.7361679,68.7723153 22.0234498,66.1155836 C31.1726232,58.7191637 41.8493751,55.9119579 53.7519435,57.7704366 C60.0277084,58.7507386 60.2904539,59.0349126 60.5225787,59.285045 L61.06338,59.869674 L34.2337069,98.1197033 L4.60569557,80.0475142 Z M176.936611,3.2943631 C176.808202,0.479756917 176.751405,0.423020772 173.877503,0.248865473 C156.305657,-0.812347128 139.45735,1.523702 123.800781,7.19287633 C105.083621,13.9706256 89.2620954,24.6098863 76.7762519,38.8161238 C74.0208814,41.9509192 71.4936846,45.4093573 69.049954,48.7533364 C67.717459,50.5772801 66.3395268,52.4633869 64.9344311,54.2838772 C64.3669601,55.0194736 63.2265854,55.7555634 62.2373387,55.6741594 C59.760518,55.4694159 57.1409652,55.1467599 53.7445352,54.6292276 C51.3348825,54.2621694 48.9672098,54.078147 46.645962,54.078147 C37.007845,54.078147 28.1540133,57.2390903 20.2439912,63.5175615 C15.6548349,67.1605154 11.0528378,70.7876819 6.4508406,74.414355 L1.83649638,78.0518819 C0.379542993,79.2009122 0.100005496,79.8723722 0.120598895,80.2330167 C0.142973274,80.587741 0.491654321,81.208385 2.03306161,82.1492183 L7.14128834,85.2672396 C15.1757689,90.1702293 23.4838604,95.2399739 31.6255134,100.276664 C32.6182173,100.890894 33.5235039,101.981215 33.9314508,103.055255 C41.2270832,122.249339 54.6735282,135.71554 73.8979046,143.079398 C75.0639612,143.525394 76.2552058,144.520003 76.9333065,145.612297 C81.2251455,152.525227 85.5416785,159.581723 89.7159735,166.405848 C91.5359305,169.380795 93.3558875,172.356236 95.1793017,175.328717 C95.7798628,176.308032 96.3962282,176.86454 96.9143109,176.897391 C97.5385784,176.931636 98.2680429,176.218734 98.7500722,175.610424 C103.796564,169.246109 108.833671,162.874393 113.867816,156.50021 C120.511523,148.088953 123.586436,138.558268 123.006617,128.173086 C122.763627,123.825617 122.058857,119.286232 121.492374,115.639825 C121.202959,113.773453 121.909704,112.814365 123.143423,111.873532 C124.839415,110.578467 126.592204,109.295737 128.286715,108.055436 C132.58942,104.906333 137.037819,101.649678 140.89356,97.9534417 C164.51596,75.309306 176.650653,46.2993747 176.961799,11.731768 C176.961799,10.8614848 176.971677,9.9912017 176.981061,9.12042521 C177.002298,7.20471692 177.024028,5.2238854 176.936611,3.2943631 L176.936611,3.2943631 Z" id="Fill-1"></path>
            <path d="M28.1311466,148.00232 C28.011627,147.925849 27.8461764,147.820271 27.6046678,147.820271 C27.2959912,147.820271 26.8628563,147.991959 26.2405643,148.614083 C23.0673693,151.787361 19.8926925,154.959158 16.7180158,158.130462 C11.9229106,162.920966 7.12731147,167.711963 2.33763895,172.508881 C2.00130497,172.845845 0.979955952,174.02349 1.96821484,175.024513 C2.26553211,175.325461 2.60532327,175.478402 2.97919232,175.479882 L2.98462503,175.479882 C3.46961765,175.479882 4.00152911,175.216922 4.4815829,174.737872 C13.0543954,166.204262 20.8730493,158.389968 28.3845083,150.848501 C28.6502171,150.581101 28.8778969,150.200722 29.1653365,149.718712 C29.226578,149.616093 29.2902888,149.510515 29.3559752,149.401482 C29.2917704,149.315638 29.2285535,149.230287 29.1658304,149.145923 C28.7998635,148.653059 28.4837787,148.227784 28.1311466,148.00232" id="Fill-4"></path>
            <path d="M55.4108948,151.260208 C55.3733597,151.260208 55.3368124,151.261195 55.2997712,151.263661 C54.9486208,151.287836 54.2201441,152.011099 53.8694875,152.358916 C47.3413486,158.843117 40.7322129,165.453125 34.3408794,171.845068 L32.3337409,173.848594 C32.0403747,174.135728 31.7633067,174.406582 31.5988438,174.680889 C31.316343,175.153032 31.295106,175.674018 31.5420473,176.110146 C31.8260297,176.611891 32.4221459,176.934054 33.1669207,177.000164 C33.2222356,176.965135 33.2805137,176.92764 33.3412613,176.889158 C33.758592,176.626199 34.2771686,176.299102 34.6806706,175.898989 C41.0507671,169.577103 47.503342,163.123489 53.7440413,156.882513 L56.1240611,154.501569 C56.2332092,154.39303 56.3551981,154.283011 56.4796565,154.172006 C56.6154742,154.05064 56.8382152,153.85231 56.906371,153.749691 C56.9794656,153.295802 57.1577572,152.124571 56.9404489,151.821156 C56.7522797,151.559183 56.0055293,151.260208 55.4108948,151.260208" id="Fill-6"></path>
            <path d="M25.1282916,122.778959 C25.3989392,122.506625 25.6197046,122.094178 25.899736,121.572699 C25.9673979,121.445906 26.0380231,121.315166 26.1121055,121.18048 C26.0316027,121.077368 25.9535692,120.974256 25.8765235,120.872624 C25.6552642,120.58105 25.2858401,120.093119 25.1194017,120.026516 C25.0102536,120.006288 24.8897463,119.996421 24.7633124,119.996421 C24.1499103,119.996421 23.3942701,120.219912 23.0771975,120.529741 C16.1603731,127.302556 9.20650742,134.272715 2.48081549,141.013463 L0.743830727,142.754029 C0.260319757,143.238506 -0.00390738234,143.772319 0,144.256797 C0.0025130902,144.624348 0.156110549,144.958845 0.455403346,145.250419 C1.19079439,145.965788 2.03533347,145.856756 2.97025305,144.927763 C11.646287,136.295976 18.6870759,129.258227 25.1282916,122.778959" id="Fill-9"></path>
            <path d="M121.903235,77.7195561 C118.922654,80.6106328 114.96863,82.1923378 110.740996,82.1923378 C110.639256,82.1923378 110.538504,82.1913511 110.436764,82.189871 C101.735543,82.03397 94.7831585,74.7549692 94.9377438,65.9638268 C95.0908473,57.2925703 102.293136,50.3529996 110.989419,50.474859 C119.892145,50.608559 126.784769,57.6532148 126.681548,66.5119473 C126.631666,70.7992264 124.934685,74.7796371 121.903235,77.7195561 M110.81014,47.3464773 L110.752355,47.3464773 C100.298344,47.3770655 91.7936878,55.8845272 91.7946755,66.3106573 C91.7956633,76.7742826 100.279083,85.3083856 110.705437,85.3340403 L110.755319,85.3340403 C115.878856,85.3345336 120.673467,83.366036 124.262511,79.789192 C127.844641,76.2187617 129.817208,71.4479919 129.81622,66.3550595 C129.815726,61.2261119 127.838714,56.4326477 124.249176,52.8577771 C120.6789,49.3021476 115.907995,47.3464773 110.81014,47.3464773" id="Fill-12"></path>
        </g>
    </g>
</svg>