<?xml version="1.0" encoding="UTF-8"?>
<svg width="165px" height="140px" viewBox="0 0 165 140" version="1.1" xmlns="http://www.w3.org/2000/svg" xmlns:xlink="http://www.w3.org/1999/xlink">
    <title>top</title>
    <g id="Programas" stroke="none" stroke-width="1" fill="none" fill-rule="evenodd">
        <g id="Group-15" fill="#47BCFF">
            <path d="M165,6.17017187 C164.985691,5.86431608 164.897647,5.57637911 164.74884,5.32304401 C164.727759,5.28658847 164.704818,5.25322238 164.681257,5.21862052 C164.616154,5.12284749 164.542991,5.03448915 164.461767,4.95230972 C164.436966,4.92821199 164.415885,4.9016427 164.389844,4.87878075 C164.281339,4.78053616 164.162294,4.69526727 164.031468,4.62482776 C164.006667,4.61123417 163.979386,4.60320159 163.953345,4.59022589 C163.84546,4.53832309 163.731375,4.49692442 163.611709,4.4660299 C163.588768,4.459851 163.568307,4.4468753 163.544746,4.44193217 L143.383929,0.0437876613 C142.382585,-0.176799244 141.38806,0.45777429 141.168571,1.45813899 C140.949081,2.4585037 141.584609,3.44651059 142.588434,3.66524382 L159.381261,7.32871654 C131.306412,33.9066581 90.8985933,46.4659002 61.5396667,52.3420388 C30.2530743,58.603741 4.71351763,58.7742788 2.09576112,58.7742788 C1.90603268,58.7742788 1.87813144,58.7742788 1.86015064,58.7736609 C0.839585217,58.7736609 0.00874824084,59.5929837 0,60.6112672 C-0.0086125318,61.6351117 0.816644196,62.4723533 1.84340989,62.4816217 C1.8570505,62.4816217 1.93641403,62.4816217 2.07902038,62.4816217 C4.80404166,62.4816217 30.6170305,62.3042871 62.1937958,55.9925358 C81.7333454,52.08685 99.6440825,46.6302591 115.429365,39.7747641 C133.337002,31.9973765 148.535738,22.379911 160.70626,11.1577839 L158.624827,29.1309825 C158.507022,30.1480302 159.238655,31.0674513 160.25922,31.1848505 C160.331763,31.1928831 160.403687,31.1972083 160.47499,31.1972083 C161.406891,31.1972083 162.211067,30.5008457 162.320812,29.5560911 L164.994991,6.46490564 C165,6.41053127 164.995611,6.35801058 164.997471,6.30425411 C165,6.2591481 165,6.21527788 165,6.17017187" id="Fill-1"></path>
            <path d="M63.3711042,87.9093601 C62.3437185,87.9093601 61.5110214,88.739187 61.5110214,89.7630316 L61.5110214,138.146329 C61.5110214,139.170173 62.3437185,140 63.3711042,140 C64.3984899,140 65.231187,139.170173 65.231187,138.146329 L65.231187,89.7630316 C65.231187,88.739187 64.3984899,87.9093601 63.3711042,87.9093601" id="Fill-4"></path>
            <path d="M20.3754767,102.790017 C19.3480909,102.790017 18.5153939,103.619844 18.5153939,104.643688 L18.5153939,138.146329 C18.5153939,139.170173 19.3480909,140 20.3754767,140 C21.4028624,140 22.2355594,139.170173 22.2355594,138.146329 L22.2355594,104.643688 C22.2355594,103.619844 21.4028624,102.790017 20.3754767,102.790017" id="Fill-7"></path>
            <path d="M113.567918,69.2881798 C112.540532,69.2881798 111.707835,70.1180067 111.707835,71.1418512 L111.707835,138.145896 C111.707835,139.170358 112.540532,139.999567 113.567918,139.999567 C114.595304,139.999567 115.428001,139.170358 115.428001,138.145896 L115.428001,71.1418512 C115.428001,70.1180067 114.595304,69.2881798 113.567918,69.2881798" id="Fill-10"></path>
            <path d="M160.472634,46.0862065 C159.445248,46.0862065 158.612551,46.9160334 158.612551,47.939878 L158.612551,138.146329 C158.612551,139.170173 159.445248,140 160.472634,140 C161.500019,140 162.332716,139.170173 162.332716,138.146329 L162.332716,47.939878 C162.332716,46.9160334 161.500019,46.0862065 160.472634,46.0862065" id="Fill-12"></path>
        </g>
    </g>
</svg>